<svg width="24" height="24" viewBox="0 0 24 24" fill="none" xmlns="http://www.w3.org/2000/svg">
	<path d="M12 10.25C12.4142 10.25 12.75 10.5858 12.75 11V17C12.75 17.4142 12.4142 17.75 12 17.75C11.5858 17.75 11.25 17.4142 11.25 17V11C11.25 10.5858 11.5858 10.25 12 10.25Z" fill="#1F1F1F" />
	<path d="M12 8.75C12.6904 8.75 13.25 8.19036 13.25 7.5C13.25 6.80964 12.6904 6.25 12 6.25C11.3096 6.25 10.75 6.80964 10.75 7.5C10.75 8.19036 11.3096 8.75 12 8.75Z" fill="#1F1F1F" />
	<path fill-rule="evenodd" clip-rule="evenodd" d="M1.25 12C1.25 6.06294 6.06294 1.25 12 1.25C17.9371 1.25 22.75 6.06294 22.75 12C22.75 17.9371 17.9371 22.75 12 22.75C6.06294 22.75 1.25 17.9371 1.25 12ZM12 2.75C6.89137 2.75 2.75 6.89137 2.75 12C2.75 17.1086 6.89137 21.25 12 21.25C17.1086 21.25 21.25 17.1086 21.25 12C21.25 6.89137 17.1086 2.75 12 2.75Z" fill="#1F1F1F" />
</svg>
