<svg width="24" height="24" viewBox="0 0 24 24" fill="none" xmlns="http://www.w3.org/2000/svg">
	<path d="M13.9881 2.56944C14.3026 2.29987 14.339 1.8264 14.0694 1.5119C13.7999 1.19741 13.3264 1.16099 13.0119 1.43056L9.51191 4.43056C9.35329 4.56651 9.25857 4.76246 9.25055 4.97122C9.24254 5.17997 9.32195 5.38261 9.46967 5.53033L12.9697 9.03033C13.2626 9.32322 13.7374 9.32322 14.0303 9.03033C14.3232 8.73744 14.3232 8.26256 14.0303 7.96967L11.8134 5.75278C12.8757 5.72105 13.9321 5.96073 14.8811 6.45366C16.0077 7.03891 16.9295 7.95341 17.5235 9.07543C18.1176 10.1975 18.3559 11.4738 18.2067 12.7346C18.0575 13.9954 17.5278 15.1809 16.6882 16.1332C15.8486 17.0855 14.7389 17.7596 13.5067 18.0657C12.2746 18.3717 10.9784 18.2953 9.79078 17.8465C8.60315 17.3978 7.58034 16.5979 6.8585 15.5535C6.13665 14.5091 5.75 13.2696 5.75 12C5.75 11.5858 5.41421 11.25 5 11.25C4.58579 11.25 4.25 11.5858 4.25 12C4.25 13.5743 4.72945 15.1113 5.62454 16.4064C6.51962 17.7014 7.7879 18.6932 9.26057 19.2497C10.7332 19.8062 12.3405 19.9009 13.8683 19.5214C15.3962 19.1419 16.7723 18.3061 17.8134 17.1252C18.8545 15.9443 19.5112 14.4743 19.6963 12.9109C19.8813 11.3475 19.5858 9.76485 18.8492 8.37354C18.1125 6.98223 16.9696 5.84826 15.5725 5.12254C14.4729 4.55134 13.2569 4.25439 12.0274 4.25004L13.9881 2.56944Z" fill="black" />
</svg>
